<svg xmlns="http://www.w3.org/2000/svg" xmlns:svg="http://www.w3.org/2000/svg" id="svg1" width="1365.333" height="1365.333" version="1.1" viewBox="0 0 1365.333 1365.333"><defs id="defs1"><linearGradient id="swatch248"><stop style="stop-color:#000610;stop-opacity:1" id="stop248" offset="0"/></linearGradient><linearGradient id="swatch247"><stop style="stop-color:#000610;stop-opacity:1" id="stop247" offset="0"/></linearGradient><mask id="mask22" maskUnits="userSpaceOnUse"><ellipse style="fill:#000" id="ellipse22" cx="777.5" cy="744.5" rx="148.5" ry="140.5"/></mask></defs><g id="g246" style="fill:#000610;fill-opacity:1"><g id="g9" style="display:inline;fill:#000610;fill-opacity:1"><path id="path18-6" style="display:inline;fill:#000610;fill-opacity:1;stroke-width:1.05259" d="m 610.57617,573.375 a 17.795935,17.795935 0 0 0 -0.1914,0.0137 h -0.22461 v 0.0156 a 17.795935,17.795935 0 0 0 -17.37891,17.76758 17.795935,17.795935 0 0 0 17.77148,17.79296 17.795935,17.795935 0 0 0 0.0234,0.002 17.795935,17.795935 0 0 0 0.0273,-0.002 h 165.50781 a 17.795935,17.795935 0 0 0 0.0547,0.004 17.795935,17.795935 0 0 0 0.0547,-0.004 h 0.42383 v -0.0312 A 17.795935,17.795935 0 0 0 793.96289,591.17188 17.795935,17.795935 0 0 0 776.16602,573.37695 17.795935,17.795935 0 0 0 776,573.38867 H 611.13086 a 17.795935,17.795935 0 0 0 -0.55469,-0.0137 z"/><path id="path5" style="display:inline;fill:#000610;fill-opacity:1" d="m 633.4043,529.61914 v 0.0371 l -1.08399,-0.004 c 0,0 -1.63674,23.11329 -7.87109,24.89454 -2.98513,0.85288 13.08131,0.88149 30.56445,0.6875 h 78.22461 c 16.91069,0.1935 32.41643,0.16473 29.4336,-0.6875 -5.00968,-1.43134 -6.50192,-16.11746 -6.90235,-21.89649 v -3.03125 z"/><path id="path8" style="display:inline;fill:#000610;fill-opacity:1" d="m 632.86914,426.42969 c -9.25107,-0.0162 -18.18761,-0.009 -26.53125,0.0293 -8.16605,0.0376 -17.58882,-8.2e-4 -10.44336,22.16016 7.14545,22.16098 30.50617,39.33615 31.60547,63.99024 l 0.0644,-0.0371 v 1.41211 h 131.64063 v -3.2461 c 2.16272,-23.46562 24.50723,-40.19322 31.46875,-61.61328 7.14546,-21.98602 -2.34839,-21.91113 -10.44336,-21.98633 -20.45488,-0.18995 -47.80711,-0.22492 -75.06445,-0.21875 -23.21609,-0.23479 -48.49871,-0.4486 -72.29688,-0.49023 z"/><path id="rect2" style="display:inline;fill:#000610;fill-opacity:1" d="m 676.99805,319.9668 v 32.53906 h -35.89649 v 34.8457 h 35.89649 v 39.67578 h 33.58789 v -39.67578 h 36.3164 v -34.8457 h -36.3164 V 319.9668 Z"/></g><path id="path60" style="display:inline;fill:#000610;stroke-width:1.02941;fill-opacity:1" d="M 491.5 486.69336 A 321.73358 321.73358 0 0 0 376.48242 684.47852 L 419.98633 684.47852 A 277.18585 277.18585 0 0 1 522.63281 513.5 L 491.5 513.5 L 491.5 486.69336 z M 898 488.28125 L 898 513.5 L 863.29688 513.5 A 277.18585 277.18585 0 0 1 965.94336 684.47852 L 1010.8613 684.47852 A 321.73358 321.73358 0 0 0 898 488.28125 z M 632.5 625.5 C 633.66416 651.34419 620.33221 701.81976 618.43164 708.88086 A 43.75 43.75 0 0 0 589 697.5 A 43.75 43.75 0 0 0 545.25 741.25 A 43.75 43.75 0 0 0 589 785 A 43.75 43.75 0 0 0 592.375 784.75781 L 592.375 793.5 L 563.17578 793.53125 A 15.25 15.25 0 0 0 562.25 793.5 A 15.25 15.25 0 0 0 547 808.75 A 15.25 15.25 0 0 0 562.25 824 A 15.25 15.25 0 0 0 562.5 823.98242 L 562.5 824 L 565.67188 824 C 565.21033 869.20625 552.22158 891.01987 545.5332 905.80469 C 538.81573 920.65386 524.6742 920.29889 521.13867 938.68359 C 520.38323 942.61189 520.36554 945.47634 520.77734 947.62695 A 277.18585 277.18585 0 0 1 419.11719 773.57422 L 374.61914 773.57422 A 321.73358 321.73358 0 0 0 693.67188 1057.832 A 321.73358 321.73358 0 0 0 1013.125 773.57422 L 966.8125 773.57422 A 277.18585 277.18585 0 0 1 866.32812 946.75586 C 866.57226 944.71007 866.45613 942.08124 865.80273 938.68359 C 862.26724 920.29889 848.12372 920.65194 841.40625 905.80273 C 834.7179 891.01794 821.72913 869.20625 821.26758 824 L 824.17773 824 L 824.17773 823.98828 A 15.25 15.25 0 0 0 839.25 808.75 A 15.25 15.25 0 0 0 824 793.5 A 15.25 15.25 0 0 0 823.14258 793.56055 L 823.11523 793.53125 L 794.30273 793.5 L 794.30273 784.75391 A 43.75 43.75 0 0 0 797.75 785 A 43.75 43.75 0 0 0 841.5 741.25 A 43.75 43.75 0 0 0 797.75 697.5 A 43.75 43.75 0 0 0 768.77344 708.51172 C 759.84835 694.47951 755.5 625.5 755.5 625.5 L 632.5 625.5 z M 693.45898 676.29102 A 51 51 0 0 1 744.45898 727.29102 A 51 51 0 0 1 693.45898 778.29102 A 51 51 0 0 1 642.45898 727.29102 A 51 51 0 0 1 693.45898 676.29102 z M 657.25 788 A 16.25 16.25 0 0 1 657.79688 788.01367 L 657.79688 788.01172 L 730.25391 788.01172 L 730.25391 788.03516 A 16.25 16.25 0 0 1 730.75 788 A 16.25 16.25 0 0 1 747 804.25 A 16.25 16.25 0 0 1 731.24805 820.46484 L 731.25 820.5 L 730.75 820.5 L 657.79688 820.5 L 657.79688 820.46094 A 16.25 16.25 0 0 1 657.25 820.5 A 16.25 16.25 0 0 1 641 804.25 A 16.25 16.25 0 0 1 657.25 788 z M 669.15234 835.95703 C 691.93087 835.95703 695.77325 836.33158 718.06641 836.1543 C 738.50222 835.99179 720.91214 872.32621 741.75586 908.63281 C 754.49946 930.83023 761.26625 934.19998 770.93555 947.04883 C 775.9701 953.73888 783.71306 959.11687 785.94922 967.18555 C 788.28846 975.62613 783.32812 993.33203 783.32812 993.33203 C 783.32813 993.33203 760.42742 1008.7305 692.39844 1008.7305 C 624.73674 1008.7305 602.80859 996.3125 602.80859 996.3125 C 602.80859 996.3125 600.58494 977.88769 602.80859 969.08984 C 604.44961 962.59723 608.70722 957.02918 612.35352 951.41211 C 623.2886 934.56666 642.17347 922.52438 649.12305 903.68164 C 666.89704 855.49007 648.54291 835.95703 669.15234 835.95703 z"/></g></svg>